<svg width="50" height="50" viewBox="0 0 50 50" fill="none" xmlns="http://www.w3.org/2000/svg">
<g clip-path="url(#clip0_11_53)">
<path d="M36.4584 1.91043C34.1124 1.94692 31.8176 2.60179 29.8058 3.80891C27.7939 5.01603 26.1362 6.73266 25 8.78543C23.8638 6.73266 22.2061 5.01603 20.1943 3.80891C18.1824 2.60179 15.8876 1.94692 13.5417 1.91043C9.80198 2.07291 6.27857 3.70888 3.74123 6.46091C1.20389 9.21295 -0.141132 12.8574 1.48313e-05 16.5979C1.48313e-05 30.7125 22.825 47.0146 23.7958 47.7063L25 48.5583L26.2042 47.7063C27.175 47.0188 50 30.7125 50 16.5979C50.1412 12.8574 48.7961 9.21295 46.2588 6.46091C43.7215 3.70888 40.1981 2.07291 36.4584 1.91043Z" fill="white"/>
</g>
<defs>
<clipPath id="clip0_11_53">
<rect width="50" height="50" fill="white"/>
</clipPath>
</defs>
</svg>
