<svg width="35" height="40" viewBox="0 0 35 40" fill="none" xmlns="http://www.w3.org/2000/svg">
<path d="M31.595 7.5917L18.31 0.210038C18.0623 0.0722712 17.7835 -3.05176e-05 17.5 -3.05176e-05C17.2165 -3.05176e-05 16.9377 0.0722712 16.69 0.210038L3.405 7.5917C2.62567 8.02469 1.97629 8.65818 1.52413 9.42653C1.07196 10.1949 0.833461 11.0702 0.833332 11.9617V31.6667C0.835978 33.876 1.7148 35.9941 3.27703 37.5563C4.83926 39.1186 6.95734 39.9974 9.16667 40H25.8333C28.0427 39.9974 30.1607 39.1186 31.723 37.5563C33.2852 35.9941 34.164 33.876 34.1667 31.6667V11.9617C34.1665 11.0702 33.928 10.1949 33.4759 9.42653C33.0237 8.65818 32.3743 8.02469 31.595 7.5917ZM30.8333 31.6667C30.8333 32.9928 30.3065 34.2646 29.3689 35.2022C28.4312 36.1399 27.1594 36.6667 25.8333 36.6667H9.16667C7.84058 36.6667 6.56881 36.1399 5.63113 35.2022C4.69345 34.2646 4.16667 32.9928 4.16667 31.6667V11.9617C4.16593 11.6636 4.24517 11.3707 4.39614 11.1136C4.54711 10.8565 4.76427 10.6446 5.025 10.5L17.5 3.57337L29.9767 10.5C30.2371 10.6449 30.4539 10.8568 30.6046 11.1139C30.7552 11.371 30.8342 11.6637 30.8333 11.9617V31.6667Z" fill="white"/>
<path d="M17.5 14.1667C18.8807 14.1667 20 13.0474 20 11.6667C20 10.286 18.8807 9.16672 17.5 9.16672C16.1193 9.16672 15 10.286 15 11.6667C15 13.0474 16.1193 14.1667 17.5 14.1667Z" fill="white"/>
</svg>
