<svg width="41" height="28" viewBox="0 0 41 28" fill="none" xmlns="http://www.w3.org/2000/svg">
<path d="M38.8333 12.3333H2.16667C1.24619 12.3333 0.5 13.0795 0.5 14C0.5 14.9205 1.24619 15.6667 2.16667 15.6667H38.8333C39.7538 15.6667 40.5 14.9205 40.5 14C40.5 13.0795 39.7538 12.3333 38.8333 12.3333Z" fill="white"/>
<path d="M38.8333 0.666656H2.16667C1.24619 0.666656 0.5 1.41285 0.5 2.33332C0.5 3.2538 1.24619 3.99999 2.16667 3.99999H38.8333C39.7538 3.99999 40.5 3.2538 40.5 2.33332C40.5 1.41285 39.7538 0.666656 38.8333 0.666656Z" fill="white"/>
<path d="M38.8333 24H2.16667C1.24619 24 0.5 24.7462 0.5 25.6667C0.5 26.5871 1.24619 27.3333 2.16667 27.3333H38.8333C39.7538 27.3333 40.5 26.5871 40.5 25.6667C40.5 24.7462 39.7538 24 38.8333 24Z" fill="white"/>
</svg>
