<svg width="41" height="40" viewBox="0 0 41 40" fill="none" xmlns="http://www.w3.org/2000/svg">
<path d="M20.5 0C16.5444 0 12.6776 1.17298 9.3886 3.37061C6.09962 5.56824 3.53617 8.69181 2.02242 12.3463C0.508666 16.0009 0.112599 20.0222 0.884303 23.9018C1.65601 27.7814 3.56082 31.3451 6.35787 34.1421C9.15492 36.9392 12.7186 38.844 16.5982 39.6157C20.4778 40.3874 24.4992 39.9913 28.1537 38.4776C31.8082 36.9638 34.9318 34.4004 37.1294 31.1114C39.327 27.8224 40.5 23.9556 40.5 20C40.4943 14.6974 38.3853 9.61368 34.6358 5.8642C30.8863 2.11471 25.8026 0.00573514 20.5 0ZM20.5 36.6667C17.2037 36.6667 13.9813 35.6892 11.2405 33.8578C8.49969 32.0265 6.36348 29.4235 5.10202 26.3781C3.84056 23.3326 3.5105 19.9815 4.15359 16.7485C4.79667 13.5155 6.38402 10.5458 8.7149 8.21489C11.0458 5.88401 14.0155 4.29667 17.2485 3.65358C20.4815 3.01049 23.8326 3.34055 26.8781 4.60201C29.9235 5.86347 32.5265 7.99968 34.3578 10.7405C36.1892 13.4813 37.1667 16.7036 37.1667 20C37.1618 24.4188 35.4043 28.6552 32.2798 31.7798C29.1552 34.9043 24.9188 36.6618 20.5 36.6667Z" fill="white"/>
<path d="M21.695 8.43833C20.7339 8.26321 19.746 8.30147 18.8013 8.5504C17.8566 8.79932 16.9782 9.25283 16.2282 9.87884C15.4781 10.5048 14.8748 11.288 14.461 12.173C14.0472 13.058 13.8329 14.0231 13.8333 15C13.8333 15.442 14.0089 15.8659 14.3215 16.1785C14.634 16.4911 15.058 16.6667 15.5 16.6667C15.942 16.6667 16.3659 16.4911 16.6785 16.1785C16.9911 15.8659 17.1667 15.442 17.1667 15C17.1662 14.5096 17.274 14.0252 17.4823 13.5813C17.6906 13.1373 17.9943 12.7448 18.3717 12.4317C18.7491 12.1186 19.1909 11.8926 19.6657 11.7699C20.1405 11.6472 20.6365 11.6307 21.1183 11.7217C21.7767 11.8495 22.3821 12.1706 22.8571 12.6441C23.3321 13.1177 23.6551 13.722 23.785 14.38C23.9162 15.0707 23.8256 15.7851 23.5263 16.4212C23.2269 17.0573 22.7341 17.5825 22.1183 17.9217C21.0986 18.5124 20.256 19.3659 19.6782 20.393C19.1004 21.4201 18.8087 22.5834 18.8333 23.7617V25C18.8333 25.442 19.0089 25.8659 19.3215 26.1785C19.634 26.4911 20.058 26.6667 20.5 26.6667C20.942 26.6667 21.3659 26.4911 21.6785 26.1785C21.9911 25.8659 22.1667 25.442 22.1667 25V23.7617C22.1457 23.1817 22.278 22.6064 22.5501 22.0938C22.8222 21.5812 23.2246 21.1493 23.7167 20.8417C24.9242 20.1784 25.8966 19.1574 26.5001 17.919C27.1037 16.6806 27.3088 15.2856 27.0871 13.9259C26.8655 12.5661 26.2281 11.3085 25.2625 10.3258C24.2969 9.34316 23.0506 8.68377 21.695 8.43833Z" fill="white"/>
<path d="M22.1667 30C22.1667 29.0795 21.4205 28.3333 20.5 28.3333C19.5795 28.3333 18.8333 29.0795 18.8333 30C18.8333 30.9205 19.5795 31.6667 20.5 31.6667C21.4205 31.6667 22.1667 30.9205 22.1667 30Z" fill="white"/>
</svg>
